<svg width="24" height="24" viewBox="0 0 24 24" fill="none" xmlns="http://www.w3.org/2000/svg">
<path fill-rule="evenodd" clip-rule="evenodd" d="M12 3C10.6739 3 9.4021 3.52678 8.46442 4.46447C7.52674 5.40215 6.99996 6.67392 6.99996 8C6.99996 11.6473 6.21702 14.0654 5.37785 15.6039C5.30175 15.7434 5.22537 15.8753 5.14928 16H18.8506C18.7745 15.8753 18.6982 15.7434 18.6221 15.6039C17.7829 14.0654 17 11.6473 17 8C17 6.67392 16.4732 5.40215 15.5355 4.46447C14.5978 3.52678 13.326 3 12 3ZM21.5663 16.1758C21.5656 16.1753 21.5646 16.1746 21.5634 16.1737C21.5557 16.168 21.5379 16.1544 21.5112 16.1322C21.458 16.0878 21.3696 16.0091 21.2572 15.8904C21.0327 15.6535 20.7096 15.2544 20.3779 14.6461C19.717 13.4346 19 11.3527 19 8C19 6.14348 18.2625 4.36301 16.9497 3.05025C15.6369 1.7375 13.8565 1 12 1C10.1434 1 8.36296 1.7375 7.05021 3.05025C5.73745 4.36301 4.99996 6.14348 4.99996 8C4.99996 11.3527 4.28289 13.4346 3.62206 14.6461C3.29027 15.2544 2.96718 15.6535 2.74275 15.8904C2.63028 16.0091 2.54189 16.0878 2.48868 16.1322C2.46206 16.1544 2.4442 16.168 2.4365 16.1737C2.43531 16.1746 2.43435 16.1753 2.43365 16.1758C2.07516 16.4221 1.91652 16.8725 2.04286 17.2898C2.17056 17.7115 2.55929 18 2.99996 18H21C21.4406 18 21.8293 17.7115 21.957 17.2898C22.0834 16.8725 21.9247 16.4221 21.5663 16.1758Z" fill="white"/>
<path fill-rule="evenodd" clip-rule="evenodd" d="M9.81833 20.1237C10.3023 19.8577 10.9103 20.0343 11.1764 20.5182C11.2575 20.6658 11.3767 20.7888 11.5216 20.8745C11.6665 20.9602 11.8318 21.0054 12.0001 21.0054C12.1684 21.0054 12.3337 20.9602 12.4786 20.8745C12.6235 20.7888 12.7427 20.6658 12.8238 20.5182C13.0899 20.0343 13.6979 19.8577 14.1819 20.1237C14.6659 20.3898 14.8425 20.9979 14.5764 21.4818C14.3227 21.9432 13.9498 22.328 13.4966 22.596C13.0435 22.864 12.5266 23.0054 12.0001 23.0054C11.4736 23.0054 10.9568 22.864 10.5036 22.596C10.0504 22.328 9.67749 21.9432 9.42382 21.4818C9.15774 20.9979 9.33437 20.3898 9.81833 20.1237Z" fill="white"/>
</svg>
