<svg width="24" height="24" viewBox="0 0 24 24" fill="none" xmlns="http://www.w3.org/2000/svg">
<path fill-rule="evenodd" clip-rule="evenodd" d="M8.61123 1.54945C11.014 0.776754 13.6095 0.85388 15.9622 1.76789C16.477 1.96789 16.7322 2.54735 16.5322 3.06215C16.3322 3.57695 15.7527 3.83215 15.2379 3.63215C13.313 2.88432 11.1895 2.82122 9.22351 3.45342C7.25758 4.08563 5.56885 5.37469 4.44064 7.10435C3.31242 8.83401 2.81335 10.899 3.02714 12.953C3.24093 15.007 4.15458 16.925 5.61482 18.3853C7.07506 19.8455 8.99305 20.7592 11.047 20.9729C13.101 21.1867 15.1661 20.6877 16.8957 19.5594C18.6254 18.4312 19.9144 16.7425 20.5467 14.7766C21.1789 12.8106 21.1158 10.6871 20.3679 8.76215C20.1679 8.24735 20.4231 7.66789 20.9379 7.46789C21.4527 7.26789 22.0322 7.52309 22.2322 8.03789C23.1462 10.3906 23.2233 12.986 22.4506 15.3888C21.6779 17.7917 20.1024 19.8557 17.9884 21.2346C15.8744 22.6135 13.3504 23.2235 10.84 22.9622C8.32955 22.7009 5.98534 21.5842 4.2006 19.7995C2.41587 18.0147 1.29918 15.6705 1.03788 13.1601C0.776583 10.6497 1.38656 8.12572 2.76549 6.01169C4.14443 3.89766 6.20842 2.32215 8.61123 1.54945Z" fill="white"/>
<path fill-rule="evenodd" clip-rule="evenodd" d="M12 11C11.4477 11 11 11.4477 11 12C11 12.5523 11.4477 13 12 13C12.5523 13 13 12.5523 13 12C13 11.4477 12.5523 11 12 11ZM9 12C9 10.3431 10.3431 9 12 9C13.6569 9 15 10.3431 15 12C15 13.6569 13.6569 15 12 15C10.3431 15 9 13.6569 9 12Z" fill="white"/>
<path fill-rule="evenodd" clip-rule="evenodd" d="M19.7071 4.29289C20.0977 4.68342 20.0977 5.31658 19.7071 5.70711L14.1071 11.3071C13.7166 11.6976 13.0834 11.6976 12.6929 11.3071C12.3024 10.9166 12.3024 10.2834 12.6929 9.89289L18.2929 4.29289C18.6834 3.90237 19.3166 3.90237 19.7071 4.29289Z" fill="white"/>
</svg>
